<?xml version="1.0" standalone="no"?>
<!DOCTYPE svg PUBLIC "-//W3C//DTD SVG 20010904//EN"
 "http://www.w3.org/TR/2001/REC-SVG-20010904/DTD/svg10.dtd">
<svg version="1.0" xmlns="http://www.w3.org/2000/svg"
 width="566.000000pt" height="440.000000pt" viewBox="0 0 566.000000 440.000000"
 preserveAspectRatio="xMidYMid meet">

<g transform="translate(0.000000,440.000000) scale(0.100000,-0.100000)"
fill="#000000" stroke="none">
<path d="M2701 3828 l-33 -31 22 -17 c20 -15 20 -17 3 -15 -10 0 -24 4 -30 8
-13 8 -37 -26 -26 -37 3 -3 1 -6 -5 -6 -8 0 -9 -7 -2 -26 13 -33 13 -34 -6
-34 -11 0 -14 6 -9 20 4 12 2 20 -5 20 -6 0 -9 -4 -6 -9 3 -5 -1 -12 -10 -15
-10 -4 -14 -14 -11 -26 3 -12 1 -18 -5 -14 -15 10 1 -38 19 -56 9 -8 13 -9 9
-3 -9 16 21 6 51 -18 20 -14 21 -18 7 -23 -9 -3 -20 -4 -24 -1 -5 3 -12 0 -16
-6 -4 -8 -3 -9 4 -5 7 4 12 1 12 -9 0 -9 -4 -14 -9 -11 -10 7 -9 -13 1 -29 3
-5 0 -16 -8 -23 -8 -7 -14 -8 -14 -3 0 14 -84 11 -112 -3 -14 -7 -47 -12 -74
-10 -66 3 -114 -5 -114 -21 0 -7 -8 -19 -17 -26 -16 -13 -17 -12 -4 4 8 9 11
21 7 24 -4 4 -11 1 -15 -6 -5 -7 -14 -10 -20 -7 -16 10 -122 -15 -114 -27 3
-5 -4 -7 -18 -3 -24 7 -24 7 1 -8 29 -18 23 -20 -15 -6 -17 7 -24 7 -20 0 3
-6 -1 -10 -11 -10 -9 0 -22 -7 -28 -14 -6 -8 -18 -16 -26 -18 -17 -4 -26 -9
-64 -43 -16 -14 -25 -25 -20 -25 5 0 2 -6 -6 -13 -8 -7 -22 -21 -30 -32 -14
-19 -14 -19 3 -6 15 12 17 11 17 -18 0 -17 -4 -31 -10 -31 -5 0 -10 7 -10 15
0 13 -4 14 -20 5 -11 -6 -20 -16 -18 -23 1 -7 -6 -25 -16 -40 -19 -28 -15 -50
5 -30 8 8 17 6 33 -8 18 -17 19 -21 6 -29 -23 -15 -40 -12 -34 5 5 11 2 14
-12 9 -11 -4 -25 -12 -33 -18 -12 -9 -13 -7 -8 7 5 13 3 16 -6 10 -6 -4 -21
-9 -31 -10 -11 -2 -28 -11 -39 -21 -18 -16 -18 -17 3 -34 12 -10 28 -18 36
-18 13 0 20 -32 15 -70 -1 -8 -2 -25 -3 -38 0 -12 -4 -25 -9 -28 -5 -3 -9 -10
-9 -16 0 -6 10 -3 21 8 16 14 21 15 17 4 -2 -8 -14 -19 -26 -25 -26 -11 -31
-32 -25 -89 l4 -44 -40 -7 c-25 -4 -41 -12 -41 -21 0 -9 -11 -14 -30 -14 -16
0 -30 5 -30 11 0 6 -7 9 -15 5 -8 -3 -15 -1 -15 5 0 5 13 12 30 15 16 4 28 10
25 14 -3 4 7 8 21 8 32 0 46 13 34 32 -8 12 -11 12 -27 -2 -10 -9 -34 -19 -53
-23 -19 -4 -39 -10 -45 -13 -5 -4 -16 -7 -23 -8 -8 -2 -22 -10 -33 -20 -10 -9
-19 -13 -19 -9 0 5 -10 -1 -22 -12 -13 -11 -32 -23 -43 -27 -19 -7 -19 -8 5
-26 14 -11 19 -20 13 -20 -7 0 -13 -12 -14 -27 l0 -28 -12 23 c-8 18 -8 25 2
32 17 10 -2 22 -23 14 -18 -7 -21 -20 -7 -29 15 -9 10 -65 -6 -65 -8 0 -11 -5
-7 -12 5 -8 0 -9 -14 -6 -17 5 -22 2 -23 -15 -1 -21 -2 -21 -6 -2 -3 11 -9 24
-13 28 -10 11 -57 -67 -64 -105 -2 -15 -7 -31 -10 -36 -3 -5 2 -9 10 -9 8 0
13 6 10 14 -4 11 -1 11 14 3 38 -20 17 -37 -40 -31 -13 2 -13 1 0 -8 8 -5 17
-8 20 -6 4 2 7 -2 7 -10 0 -8 -4 -12 -9 -9 -10 6 -11 -10 -1 -20 11 -10 12
-37 2 -30 -5 3 -10 -7 -10 -23 -2 -24 -2 -25 -6 -5 -3 13 1 30 7 38 15 17 -1
19 -20 2 -11 -10 -11 -9 0 6 13 17 13 19 0 14 -9 -3 -18 -24 -22 -52 -4 -27
-10 -55 -14 -65 -4 -9 -8 -18 -8 -21 -1 -3 -8 -15 -16 -27 -11 -18 -24 -23
-56 -23 -25 0 -47 6 -54 15 -7 8 -16 13 -20 10 -5 -3 -11 4 -15 14 -4 13 -11
18 -22 14 -11 -4 -14 -2 -9 5 4 8 -7 20 -29 34 -31 17 -34 23 -21 30 11 6 14
14 7 26 -5 9 -12 36 -16 60 -4 23 -11 42 -16 42 -6 0 -7 4 -4 10 3 6 -1 7 -9
4 -9 -3 -14 -9 -12 -13 3 -4 1 -13 -3 -20 -7 -10 -9 -10 -14 2 -3 8 3 24 14
36 20 21 13 31 -8 10 -7 -7 -9 -1 -7 22 2 18 10 36 17 41 8 5 7 8 -6 8 -10 0
-15 5 -12 10 4 6 10 8 15 5 11 -7 -21 119 -33 126 -5 4 -7 12 -3 18 11 17 -26
111 -44 110 -10 0 -11 -2 -2 -6 19 -7 14 -23 -5 -17 -15 5 -15 4 -3 -4 8 -6
18 -8 22 -6 12 8 5 -19 -7 -28 -13 -9 -35 10 -35 31 1 21 25 53 34 43 8 -7 -6
30 -27 76 -6 12 -17 22 -26 23 -10 0 -12 2 -4 6 10 3 10 8 -1 19 -19 18 -27
18 -20 -1 4 -9 0 -15 -10 -15 -9 0 -16 -4 -16 -10 0 -5 8 -7 17 -4 17 5 17 5
1 -6 -10 -6 -18 -17 -18 -25 0 -20 -38 -6 -46 17 -7 22 9 38 39 38 10 0 16 4
12 9 -3 6 1 16 8 23 12 11 12 15 -2 25 -15 12 -15 13 1 7 15 -5 14 -1 -3 33
-11 21 -24 37 -29 36 -5 -2 -7 4 -4 12 4 9 0 15 -10 15 -9 0 -13 6 -10 13 2 7
-4 21 -15 31 -17 15 -40 19 -146 20 -111 1 -128 -1 -136 -16 -6 -10 -15 -18
-20 -18 -6 0 -17 -7 -26 -15 -8 -8 -18 -13 -23 -10 -4 3 -14 -3 -21 -13 -11
-14 -11 -15 0 -5 10 9 18 9 34 0 15 -9 21 -9 24 0 3 10 12 9 36 -4 18 -10 36
-16 42 -14 5 1 6 -1 2 -5 -14 -14 -38 -13 -44 2 -5 15 -33 20 -33 6 0 -4 -9
-8 -20 -9 -11 -1 -20 2 -20 8 0 12 -71 2 -84 -12 -8 -8 -3 -10 21 -7 18 2 30
1 28 -3 -3 -4 15 -6 39 -5 25 1 42 -2 40 -6 -5 -8 0 -10 47 -13 14 -1 32 -6
39 -10 8 -5 11 -4 7 1 -3 6 3 15 14 22 11 7 19 8 19 2 0 -5 -5 -10 -11 -10 -6
0 -9 -6 -6 -12 7 -22 32 -14 32 9 0 35 20 32 23 -4 2 -21 -2 -32 -12 -35 -12
-3 -12 -8 3 -40 10 -20 21 -48 25 -62 3 -14 11 -26 16 -26 6 0 10 -11 10 -25
0 -14 5 -25 11 -25 5 0 8 -4 5 -9 -3 -5 1 -11 9 -15 8 -3 15 -10 15 -16 0 -6
-4 -8 -10 -5 -7 4 -7 -3 0 -19 5 -14 8 -26 5 -26 -2 0 1 -13 6 -30 14 -39 27
-39 24 0 -1 17 0 28 3 25 10 -9 10 -85 1 -85 -5 0 -9 -5 -9 -11 0 -5 4 -7 10
-4 7 4 7 -2 1 -18 -6 -14 -7 -27 -4 -30 6 -6 8 -34 18 -242 4 -80 13 -152 20
-167 10 -20 10 -28 1 -33 -6 -3 1 -3 16 0 15 3 30 1 33 -5 3 -6 -1 -7 -9 -4
-9 3 -16 1 -16 -6 0 -6 -4 -9 -8 -6 -5 3 -9 -1 -9 -9 0 -8 3 -15 7 -15 3 0 7
-17 8 -37 2 -21 7 -39 12 -41 5 -2 6 -10 3 -19 -5 -12 -3 -14 7 -8 8 5 11 4 7
-3 -9 -14 3 -43 14 -36 5 3 6 -1 3 -9 -3 -8 2 -21 10 -30 9 -9 16 -21 16 -27
0 -17 89 -102 100 -95 6 3 7 -1 4 -9 -3 -9 8 -23 32 -40 31 -21 41 -23 53 -13
14 10 14 10 3 -4 -10 -13 -10 -18 1 -28 8 -6 17 -8 20 -4 4 3 7 2 7 -4 0 -16
86 -54 107 -47 13 4 14 3 5 -3 -9 -7 -6 -13 13 -21 15 -7 31 -10 36 -7 5 4 9
2 9 -3 0 -16 31 -23 46 -11 14 12 38 3 29 -11 -6 -10 29 -32 38 -24 3 3 3 -3
0 -14 -7 -27 22 -67 50 -68 53 -3 53 -3 37 -14 -12 -8 -12 -12 -2 -18 10 -7
10 -11 -2 -22 -9 -7 -13 -17 -9 -23 4 -6 0 -8 -9 -5 -11 5 -14 0 -10 -18 2
-13 8 -24 13 -24 5 0 9 -7 9 -16 0 -8 5 -12 10 -9 6 4 9 -3 6 -17 -4 -29 37
-112 71 -144 14 -13 21 -24 14 -24 -13 0 11 -48 42 -81 10 -10 15 -19 12 -19
-2 0 5 -11 17 -25 12 -14 28 -23 35 -21 8 3 10 -1 6 -12 -6 -16 -5 -16 14 1
26 22 37 10 18 -20 -14 -21 -12 -27 8 -24 4 0 7 -5 7 -11 0 -7 14 -22 30 -33
16 -11 30 -25 30 -31 0 -6 11 -16 25 -22 14 -6 25 -16 25 -22 0 -5 6 -10 13
-10 6 0 25 -14 41 -30 16 -17 35 -30 43 -30 7 0 28 -30 46 -67 18 -38 38 -67
44 -66 6 1 17 -4 23 -12 7 -8 23 -15 36 -15 12 0 25 -4 29 -10 3 -5 12 -7 20
-3 8 3 15 1 15 -5 0 -6 8 -9 18 -7 9 1 17 9 16 17 -1 8 5 15 12 15 9 0 10 -5
3 -18 -13 -25 -1 -30 99 -40 48 -5 114 -13 147 -18 87 -13 820 -6 868 9 21 6
82 13 135 14 54 2 107 8 118 14 12 6 24 9 27 6 10 -10 47 7 47 21 0 12 6 13
45 5 6 -1 19 -2 30 -1 13 2 5 8 -25 21 l-45 19 41 0 c28 1 44 -4 48 -14 3 -8
11 -15 18 -15 18 0 44 43 30 48 -6 2 -8 10 -5 18 9 25 -6 15 -21 -13 -8 -16
-15 -23 -16 -16 0 6 -3 19 -6 27 -4 12 -2 15 9 10 11 -4 17 3 22 25 7 32 25
43 25 16 0 -20 10 -19 26 2 9 14 10 21 1 32 -10 12 -9 12 10 3 19 -10 25 -8
47 19 14 17 26 27 26 24 0 -4 7 -2 15 5 9 7 14 19 11 27 -3 8 -1 11 4 8 5 -3
21 5 34 18 14 14 28 22 31 19 3 -4 3 2 -1 12 -5 12 -4 17 3 13 14 -9 53 26 54
49 0 11 3 14 5 8 3 -6 35 17 71 52 55 52 69 61 82 51 10 -8 13 -8 8 -1 -4 7 0
14 8 17 9 4 12 1 9 -7 -3 -8 0 -17 7 -22 7 -4 10 -3 6 2 -3 5 1 18 9 29 8 10
14 14 14 9 0 -6 12 -10 28 -9 19 2 20 1 4 -2 -12 -2 -20 -9 -17 -14 3 -5 -2
-6 -12 -2 -15 5 -16 4 -5 -8 9 -10 48 -15 142 -17 72 -2 130 -1 130 3 0 3 -10
10 -22 16 l-23 10 23 -5 c26 -5 30 10 5 18 -11 3 -7 4 7 3 16 -1 25 -8 24 -18
-1 -13 7 -15 45 -12 25 2 57 7 71 11 14 3 30 6 35 7 6 1 25 5 43 9 27 6 31 10
21 22 -6 8 -8 14 -3 14 5 0 -6 9 -23 20 -39 24 -41 30 -8 30 18 0 23 -4 19
-15 -4 -10 0 -15 11 -15 11 0 15 -5 12 -14 -3 -8 0 -17 8 -20 9 -3 12 0 8 10
-3 7 0 14 6 14 6 0 11 -6 11 -12 0 -10 2 -10 9 0 4 7 12 12 17 11 19 -5 64 14
57 24 -3 6 -1 7 5 3 14 -8 62 22 61 38 0 7 -2 6 -6 -1 -2 -7 -9 -13 -14 -13
-18 0 4 29 29 39 19 6 21 10 9 10 -10 1 -15 6 -12 11 10 16 35 -8 28 -27 -5
-13 -3 -13 15 -2 12 7 19 15 17 18 -3 2 12 13 33 23 20 11 42 25 47 30 7 8 5
8 -5 3 -9 -5 -7 1 5 15 11 13 15 20 8 17 -6 -4 -14 -3 -18 2 -3 6 6 8 21 5 16
-3 23 -1 19 6 -3 5 1 10 9 10 9 0 25 9 36 20 22 22 26 35 8 24 -9 -5 -9 -2 1
9 16 20 25 22 16 5 -4 -7 7 3 24 22 17 19 29 40 26 47 -2 7 1 10 8 7 8 -3 12
7 13 28 1 30 1 30 -14 12 -13 -17 -14 -17 -8 -1 3 10 6 23 6 29 0 7 5 6 14 -1
11 -9 15 -9 20 1 3 7 3 2 0 -11 -4 -16 -3 -21 5 -17 6 4 11 13 11 21 0 7 4 15
9 17 5 2 11 9 13 17 2 8 11 22 20 32 10 10 14 26 11 39 -4 14 -1 20 8 18 10
-2 13 5 11 22 -2 20 -1 22 7 10 8 -12 12 -8 17 18 4 18 11 35 15 38 5 3 9 12
9 20 0 8 -3 13 -8 11 -4 -3 -7 8 -7 23 -1 16 3 26 7 24 5 -3 6 -9 3 -14 -3 -5
-1 -11 4 -15 10 -6 34 63 26 76 -3 4 0 9 5 11 13 4 26 57 35 143 4 33 9 64 12
68 3 4 -1 15 -9 24 -9 12 -9 15 0 9 8 -5 12 1 13 21 0 15 2 37 5 48 6 28 -7
166 -15 161 -4 -3 -7 4 -7 14 0 10 4 16 9 13 4 -2 5 8 2 24 -23 99 -37 149
-47 158 -8 7 -9 6 -4 -2 4 -7 1 -22 -7 -33 -14 -21 -15 -20 -22 7 -12 42 -13
63 -3 63 4 0 8 -13 8 -30 0 -16 4 -30 8 -30 5 0 8 19 7 43 -2 44 -33 115 -65
147 -11 11 -18 20 -15 20 3 0 -3 9 -12 19 -9 11 -21 17 -26 14 -6 -4 -8 1 -4
10 4 12 -5 25 -28 44 -19 16 -37 26 -39 23 -3 -3 -16 6 -30 19 -14 14 -26 20
-26 14 0 -6 -6 -13 -13 -16 -8 -3 -14 1 -14 9 0 7 5 10 10 7 5 -3 8 0 5 8 -2
8 -24 25 -47 38 -37 20 -56 23 -148 24 -93 0 -108 -2 -120 -19 -14 -19 -14
-19 -11 1 2 17 -2 20 -27 17 -51 -4 -76 -12 -70 -22 3 -5 -3 -7 -14 -5 -11 2
-25 -3 -32 -11 -6 -8 -19 -14 -28 -14 -10 0 -26 -7 -37 -16 -10 -8 -13 -12 -5
-8 9 4 12 3 7 -4 -4 -6 -13 -9 -22 -5 -16 6 -54 -23 -54 -42 0 -7 -8 -19 -17
-26 -15 -11 -16 -11 -5 1 18 21 14 32 -7 18 -11 -7 -17 -16 -15 -20 3 -4 0 -8
-7 -8 -15 0 -85 -61 -81 -72 1 -4 -5 -8 -13 -8 -8 0 -15 -5 -15 -11 0 -5 4 -8
9 -4 5 3 12 1 15 -4 6 -10 -19 -9 -29 1 -4 3 -18 0 -33 -8 -35 -18 -52 -18
-91 2 -17 9 -39 13 -48 10 -14 -6 -14 -4 -2 11 12 15 12 16 -3 10 -11 -4 -17
-2 -15 4 4 19 -103 71 -132 64 -24 -6 -25 -5 -7 8 18 13 16 15 -32 31 -29 10
-55 22 -58 28 -4 6 -10 5 -15 -3 -7 -12 -9 -12 -9 0 0 9 -4 10 -12 4 -18 -14
-47 -12 -41 2 2 7 -3 15 -12 19 -13 5 -15 2 -9 -16 6 -21 6 -21 -10 -5 -10 9
-22 17 -27 17 -6 0 -7 5 -4 10 3 6 16 10 28 10 13 0 17 3 11 8 -6 4 -18 29
-25 56 -8 27 -20 51 -27 54 -7 2 -11 -2 -10 -8 2 -7 -2 -14 -7 -16 -6 -2 -11
5 -11 16 0 13 7 20 21 20 18 0 20 6 20 76 -1 55 -5 78 -15 84 -8 6 -10 10 -5
10 6 0 16 -5 23 -12 7 -7 12 -8 12 -2 1 5 7 -2 15 -16 14 -24 14 -24 15 -4 0
20 -10 29 -33 33 -4 0 -20 7 -37 16 -37 19 -50 19 -50 0 0 -9 -6 -12 -15 -9
-13 5 -12 10 4 33 17 24 18 30 6 59 -8 17 -23 42 -34 54 -12 12 -21 25 -21 30
0 4 -6 8 -13 8 -8 0 -19 12 -25 26 -7 15 -17 22 -24 18 -6 -4 -8 -3 -5 3 4 6
0 16 -8 23 -8 7 -15 9 -15 5 0 -5 -8 -1 -17 7 -10 8 -31 18 -46 22 -17 4 -25
11 -21 18 5 7 3 8 -6 3 -7 -4 -15 -3 -19 3 -4 7 -17 13 -29 15 -12 2 -25 6
-28 10 -4 4 -13 -1 -19 -10 -11 -14 -10 -20 4 -30 13 -11 11 -11 -11 -2 -22
10 -25 15 -16 26 8 10 8 17 -1 26 -10 9 -11 8 -6 -5 10 -24 0 -22 -25 5 -18
19 -33 22 -101 24 -44 2 -89 8 -100 14 -12 6 -54 9 -97 7 l-77 -3 -1 63 c0 35
4 66 8 68 5 3 7 0 6 -7 -2 -6 3 -14 11 -17 8 -3 11 0 7 7 -4 6 -2 11 3 11 6 0
11 18 11 40 0 42 -12 52 -29 23 -8 -16 -10 -14 -16 10 -4 16 -2 33 5 41 9 12
4 23 -25 55 -21 23 -42 38 -48 34 -5 -3 -8 -2 -4 3 8 13 -17 43 -39 47 -10 1
-24 6 -30 9 -5 4 -25 -7 -43 -24z m97 -45 c3 -31 2 -31 -22 -20 -14 7 -26 18
-26 25 0 10 -10 12 -36 9 -33 -5 -34 -4 -20 12 12 13 26 16 58 12 40 -6 43 -9
46 -38z m46 -14 c3 -3 -4 -5 -14 -6 -11 -1 -20 2 -20 7 0 8 25 8 34 -1z m-179
-59 c-3 -5 -11 -10 -16 -10 -6 0 -7 5 -4 10 3 6 11 10 16 10 6 0 7 -4 4 -10z
m-131 -258 c3 -5 -1 -9 -9 -9 -8 0 -12 4 -9 9 3 4 7 8 9 8 2 0 6 -4 9 -8z
m525 -1 c9 -6 6 -8 -13 -8 -14 0 -23 3 -20 8 7 11 15 11 33 0z m-551 -27 c42
-12 22 -24 -37 -24 -82 0 -96 27 -16 29 17 0 40 -2 53 -5z m595 -1 c-13 -2
-33 -2 -45 0 -13 2 -3 4 22 4 25 0 35 -2 23 -4z m-850 -20 c-7 -2 -19 -2 -25
0 -7 3 -2 5 12 5 14 0 19 -2 13 -5z m1 -26 c16 -12 16 -13 -3 -13 -11 0 -17 4
-14 9 3 5 -5 6 -18 2 -19 -5 -21 -4 -9 4 19 14 23 14 44 -2z m1114 -4 c4 3 14
2 21 -2 9 -6 5 -8 -13 -8 -14 0 -31 7 -38 16 -12 14 -11 14 4 3 9 -8 21 -11
26 -9z m-1303 -53 c-13 -14 -14 -20 -5 -20 7 0 11 -2 8 -5 -3 -3 -13 -3 -22 1
-15 6 -14 9 6 28 28 27 38 24 13 -4z m1425 -11 c15 -28 5 -23 -15 7 -9 15 -12
23 -6 20 6 -4 16 -16 21 -27z m-19 -11 c11 -21 11 -22 -4 -9 -10 7 -17 17 -17
22 0 15 9 10 21 -13z m-1441 -8 c18 -12 2 -12 -25 0 -13 6 -15 9 -5 9 8 0 22
-4 30 -9z m1517 -15 c4 -4 3 -5 -4 -1 -7 3 -13 -1 -15 -11 -3 -15 -5 -15 -10
3 -6 22 12 28 29 9z m-1579 -35 c-7 -10 -14 -17 -17 -15 -4 4 18 35 25 35 2 0
-1 -9 -8 -20z m1600 -16 c-4 -3 -12 5 -18 18 -12 22 -12 22 6 6 10 -10 15 -20
12 -24z m2 -17 c8 -3 1 -4 -16 -4 -24 2 -30 6 -26 20 4 15 6 15 16 3 6 -7 18
-16 26 -19z m-1577 11 c3 -9 -7 -14 -27 -15 l-31 -2 25 13 c14 8 26 14 26 15
1 1 4 -5 7 -11z m-1573 -186 c15 10 23 9 39 -6 12 -11 21 -23 21 -28 0 -11
-47 -10 -70 2 -16 9 -18 8 -13 -7 6 -15 5 -16 -9 -3 -12 11 -13 19 -4 32 6 10
12 14 14 8 2 -5 11 -5 22 2z m245 -28 c2 -11 4 -20 4 -21 6 -20 -11 -23 -51
-10 -33 11 -35 18 -7 35 17 11 23 11 36 0 15 -12 15 -10 3 12 -9 17 -9 22 -1
14 7 -6 14 -20 16 -30z m1175 27 c0 -5 -16 -16 -35 -25 -27 -13 -39 -14 -56
-6 -23 13 -19 22 13 27 17 3 19 1 8 -12 -17 -21 -1 -19 35 4 36 24 35 23 35
12z m-1323 -37 c-3 -3 -12 -4 -19 -1 -8 3 -5 6 6 6 11 1 17 -2 13 -5z m60 -20
c-10 -10 -67 -12 -61 -3 3 5 19 9 36 9 17 0 29 -3 25 -6z m-105 -21 c-7 -3
-19 -11 -26 -19 -8 -8 -18 -14 -23 -14 -4 1 5 12 22 25 16 13 32 21 35 18 3
-3 -1 -8 -8 -10z m3238 -23 c0 -11 -7 -20 -15 -20 -13 0 -13 3 -3 20 7 11 14
20 15 20 2 0 3 -9 3 -20z m-3309 -8 c-7 -2 -18 1 -23 6 -8 8 -4 9 13 5 13 -4
18 -8 10 -11z m154 -77 c1 -19 -2 -22 -13 -13 -10 8 -10 13 -1 18 7 5 8 14 4
21 -5 8 -4 11 1 6 5 -5 9 -19 9 -32z m170 25 c-3 -5 -13 -10 -21 -10 -8 0 -14
5 -14 10 0 6 9 10 21 10 11 0 17 -4 14 -10z m1106 -37 c-8 -15 -10 -15 -11 -2
0 17 10 32 18 25 2 -3 -1 -13 -7 -23z m3021 -24 c35 -2 45 -6 41 -17 -4 -8 -8
-10 -12 -3 -4 5 -27 11 -53 12 -35 2 -45 6 -41 17 4 8 8 10 12 3 4 -5 27 -11
53 -12z m-4212 -39 c0 -30 -14 -41 -23 -17 -2 6 -8 0 -12 -16 -5 -17 -3 -33 5
-42 8 -10 9 -15 2 -15 -31 0 -35 75 -5 93 7 5 11 12 8 18 -4 5 1 9 9 9 11 0
16 -9 16 -30z m3917 -35 c0 -17 -13 -20 -21 -6 -4 5 0 12 6 14 7 3 13 6 14 6
0 1 1 -6 1 -14z m-67 -9 c0 -2 -7 -7 -16 -10 -8 -3 -12 -2 -9 4 6 10 25 14 25
6z m-540 -40 c0 -2 -7 -7 -16 -10 -8 -3 -12 -2 -9 4 6 10 25 14 25 6z m-2400
-26 c-13 -8 -12 -10 2 -10 9 0 19 8 21 18 3 12 5 11 6 -6 1 -18 -4 -23 -21
-22 -41 4 -48 1 -41 -17 6 -15 5 -16 -9 -3 -15 14 -14 16 1 24 9 5 22 16 30
23 7 8 16 11 19 8 4 -3 0 -10 -8 -15z m3390 -24 c0 -2 -7 -7 -16 -10 -8 -3
-12 -2 -9 4 6 10 25 14 25 6z m-95 -16 c-27 -12 -43 -12 -25 0 8 5 22 9 30 9
10 0 8 -3 -5 -9z m-3357 -21 c7 -12 11 -24 8 -27 -6 -6 -35 27 -36 41 0 14 15
7 28 -14z m3185 4 c-7 -2 -19 -2 -25 0 -7 3 -2 5 12 5 14 0 19 -2 13 -5z m284
1 c-3 -3 -12 -4 -19 -1 -8 3 -5 6 6 6 11 1 17 -2 13 -5z m-6 -40 c11 -10 19
-13 19 -9 0 5 6 0 14 -11 8 -10 18 -16 22 -12 8 9 84 -49 84 -64 0 -6 -6 -6
-15 2 -13 11 -13 7 0 -30 8 -24 20 -49 26 -56 6 -7 12 -25 13 -39 5 -36 14
-42 25 -14 l10 24 0 -27 c1 -16 -4 -28 -10 -28 -8 0 -9 -13 -4 -42 4 -24 8
-52 9 -63 0 -11 6 -23 11 -27 7 -5 7 -8 0 -8 -6 0 -11 -39 -12 -93 -1 -50 -4
-114 -8 -140 -3 -29 -2 -46 4 -43 5 3 12 -1 15 -10 3 -8 10 -12 16 -9 5 3 10
2 10 -3 0 -12 -29 -24 -41 -16 -14 8 -30 -45 -25 -86 3 -25 -1 -45 -10 -57
-14 -17 -14 -17 -5 4 18 36 12 40 -9 8 -11 -16 -18 -38 -16 -48 2 -10 -2 -21
-10 -24 -8 -3 -13 -12 -10 -20 3 -8 2 -12 -3 -9 -12 8 -35 -40 -26 -55 5 -7 4
-10 -2 -6 -10 6 -53 -44 -53 -62 0 -6 -9 -15 -20 -21 -12 -7 -17 -16 -13 -28
3 -9 3 -14 -2 -10 -11 11 -36 -12 -28 -25 3 -5 2 -7 -4 -4 -6 4 -21 -5 -33
-18 -21 -23 -20 -30 3 -26 4 1 3 -8 -3 -19 -12 -23 -22 -27 -14 -5 4 8 1 15
-5 15 -6 0 -11 -5 -11 -12 0 -6 -3 -9 -6 -5 -3 3 -16 -3 -27 -14 -19 -17 -20
-21 -7 -29 8 -5 10 -10 4 -10 -5 0 -14 4 -20 9 -5 6 -23 0 -44 -15 -19 -13
-30 -24 -25 -24 5 0 0 -6 -10 -14 -11 -8 -24 -13 -30 -12 -5 2 -7 1 -2 -1 4
-3 4 -10 0 -16 -3 -7 3 -4 14 6 20 17 58 14 47 -4 -3 -5 -10 -7 -15 -3 -5 3
-8 0 -7 -8 4 -18 -41 -23 -48 -5 -3 8 -13 13 -22 12 -78 -14 -130 -29 -126
-37 3 -4 -3 -9 -13 -9 -38 -3 -169 2 -197 7 -18 4 -26 2 -22 -4 4 -6 -3 -8
-16 -5 -23 4 -23 4 1 -10 20 -12 21 -15 7 -20 -10 -4 -15 -3 -11 2 3 5 0 11
-7 13 -13 5 -19 48 -6 48 4 0 8 -5 8 -12 0 -6 3 -9 6 -6 3 4 -1 19 -9 35 -15
29 -16 55 -4 108 4 17 9 41 11 55 2 14 7 32 11 41 3 10 1 20 -6 25 -8 5 -10 3
-4 -6 5 -9 4 -11 -4 -6 -13 9 -5 26 12 26 7 0 13 8 14 18 2 16 11 62 34 162
13 55 23 324 12 317 -4 -3 -9 18 -9 46 -1 29 -6 111 -12 182 -5 72 -8 132 -6
134 2 2 14 4 26 5 13 1 22 7 20 14 -1 7 1 11 5 10 5 -2 30 19 56 46 27 26 44
45 38 42 -6 -4 -11 -2 -11 3 0 6 5 12 10 12 6 1 14 2 19 3 19 2 71 47 66 56
-3 6 0 7 8 4 13 -5 32 10 38 31 2 6 8 9 15 7 6 -1 22 8 35 20 19 18 34 22 66
20 23 -2 56 1 74 5 45 12 158 -3 180 -23z m296 10 c-3 -3 -12 -4 -19 -1 -8 3
-5 6 6 6 11 1 17 -2 13 -5z m-4370 -80 c-10 -10 -47 7 -47 21 0 21 34 23 44 3
5 -10 7 -21 3 -24z m3433 12 c0 -9 -40 -13 -46 -5 -3 5 6 9 20 9 14 0 26 -2
26 -4z m-3430 -35 c0 -5 -9 -7 -20 -4 -11 3 -20 7 -20 9 0 2 9 4 20 4 11 0 20
-4 20 -9z m3540 -42 c-13 -22 -39 -43 -47 -35 -3 3 -1 18 6 33 10 22 14 24 22
12 8 -10 9 -6 4 16 -6 28 -5 29 8 10 10 -13 12 -25 7 -36z m693 16 c-3 -9 -8
-14 -10 -11 -3 3 -2 9 2 15 9 16 15 13 8 -4z m0 -40 c-3 -9 -8 -14 -10 -11 -3
3 -2 9 2 15 9 16 15 13 8 -4z m-4436 -27 c-3 -8 -6 -5 -6 6 -1 11 2 17 5 13 3
-3 4 -12 1 -19z m30 -25 c-3 -10 -5 -2 -5 17 0 19 2 27 5 18 2 -10 2 -26 0
-35z m4453 -79 c0 -8 -4 -12 -10 -9 -5 3 -10 10 -10 16 0 5 5 9 10 9 6 0 10
-7 10 -16z m-4145 -164 c29 0 14 -15 -16 -16 -17 -1 -26 2 -19 6 6 3 8 15 5
26 -6 17 -6 18 5 2 6 -10 18 -18 25 -18z m-302 -65 c-3 -9 -8 -14 -10 -11 -3
3 -2 9 2 15 9 16 15 13 8 -4z m447 5 c0 -5 -17 -10 -37 -9 -31 0 -34 2 -18 9
28 12 55 12 55 0z m4013 -130 c-3 -12 -8 -19 -11 -16 -5 6 5 36 12 36 2 0 2
-9 -1 -20z m117 -93 c0 -4 -6 -2 -14 5 -8 7 -12 17 -9 22 5 8 23 -12 23 -27z
m-4501 -39 c-5 -10 -11 -18 -12 -18 -2 0 -3 8 -3 18 0 10 6 19 13 19 8 0 9 -6
2 -19z m4505 -64 c3 -8 2 -12 -4 -9 -6 3 -10 10 -10 16 0 14 7 11 14 -7z
m-181 -49 c-3 -9 -8 -14 -10 -11 -3 3 -2 9 2 15 9 16 15 13 8 -4z m-4076 -116
c-1 -10 -5 -19 -10 -19 -5 0 -6 7 -3 16 4 9 1 24 -6 33 -11 14 -11 14 4 3 9
-7 16 -22 15 -33z m4174 18 c-10 -9 -11 -8 -5 6 3 10 9 15 12 12 3 -3 0 -11
-7 -18z m-188 -57 c3 -10 -1 -24 -8 -30 -11 -9 -12 -7 -8 11 5 17 3 20 -8 14
-12 -8 -12 -6 0 8 17 21 18 21 24 -3z m-3869 -8 c3 -5 -1 -9 -9 -9 -8 0 -12 4
-9 9 3 4 7 8 9 8 2 0 6 -4 9 -8z m4063 -7 c0 -8 -4 -12 -9 -9 -5 3 -6 10 -3
15 9 13 12 11 12 -6z m-944 -25 c-3 -11 -7 -20 -9 -20 -2 0 -4 9 -4 20 0 11 4
20 9 20 5 0 7 -9 4 -20z m722 -10 c3 -5 1 -10 -4 -10 -6 0 -11 5 -11 10 0 6 2
10 4 10 3 0 8 -4 11 -10z m-155 -160 c0 -5 -4 -10 -10 -10 -5 0 -10 5 -10 10
0 6 5 10 10 10 6 0 10 -4 10 -10z m-70 -50 c0 -5 -5 -10 -11 -10 -5 0 -7 5 -4
10 3 6 8 10 11 10 2 0 4 -4 4 -10z m189 -44 c-12 -10 -79 -16 -79 -6 0 5 19
10 42 10 23 0 39 -2 37 -4z m-89 -66 c11 -6 17 -17 14 -25 -8 -19 -44 -2 -44
20 0 18 5 18 30 5z m-385 -10 c12 5 24 3 31 -4 8 -9 -12 -12 -80 -13 -64 0
-84 2 -67 8 13 5 33 7 44 3 13 -4 17 -2 13 5 -5 7 0 8 16 2 13 -5 32 -5 43 -1z
m343 -20 c3 -9 -1 -11 -14 -7 -18 7 -18 6 0 -8 23 -18 14 -20 -13 -3 -14 9
-16 14 -7 24 13 16 28 13 34 -6z m-3396 -27 c-3 -16 -7 -22 -10 -15 -4 13 4
42 11 42 2 0 2 -12 -1 -27z m3263 -69 c-16 -17 -35 -18 -35 -3 0 5 -4 7 -10 4
-5 -3 -10 -2 -10 3 0 6 16 10 35 10 29 0 32 -2 20 -14z m-3205 -4 c0 -5 -2
-10 -4 -10 -3 0 -8 5 -11 10 -3 6 -1 10 4 10 6 0 11 -4 11 -10z m2545 -72 c3
-3 -1 -11 -10 -18 -8 -7 -15 -11 -16 -9 -6 31 -5 37 7 35 7 -1 16 -5 19 -8z
m301 4 c-3 -3 -17 -6 -31 -6 -15 -1 -30 -8 -35 -16 -6 -8 -10 -10 -10 -4 0 18
18 29 50 30 17 1 29 -1 26 -4z m119 -2 c3 -5 1 -10 -4 -10 -6 0 -11 5 -11 10
0 6 2 10 4 10 3 0 8 -4 11 -10z m54 -1 c-18 -11 -39 -11 -39 0 0 5 12 9 26 9
18 0 22 -3 13 -9z m-550 -77 c13 10 14 10 4 -2 -17 -19 -40 -21 -40 -4 0 10 4
11 10 5 7 -7 16 -7 26 1z m-179 -156 c0 -2 -11 -6 -25 -8 -14 -3 -25 -1 -25 3
0 5 11 9 25 9 14 0 25 -2 25 -4z m-1860 -162 c0 -2 -9 -8 -20 -14 -15 -8 -18
-8 -14 3 4 11 34 21 34 11z m1465 -84 c3 -5 1 -10 -4 -10 -6 0 -11 5 -11 10 0
6 2 10 4 10 3 0 8 -4 11 -10z m35 0 c0 -5 -5 -10 -11 -10 -5 0 -7 5 -4 10 3 6
8 10 11 10 2 0 4 -4 4 -10z m40 -1 c0 -4 -6 -9 -13 -12 -8 -3 -14 0 -14 7 0 7
6 13 14 13 7 0 13 -4 13 -8z m37 -3 c-5 -15 -24 -18 -24 -3 0 8 6 14 14 14 7
0 12 -5 10 -11z m-80 -22 c-3 -3 -12 -4 -19 -1 -8 3 -5 6 6 6 11 1 17 -2 13
-5z"/>
<path d="M646 2982 c-3 -5 1 -9 9 -9 8 0 12 4 9 9 -3 4 -7 8 -9 8 -2 0 -6 -4
-9 -8z"/>
<path d="M5020 2512 c6 -13 14 -21 18 -18 3 4 -2 14 -12 24 -18 16 -18 16 -6
-6z"/>
<path d="M2893 3685 c0 -8 4 -12 9 -9 5 3 6 10 3 15 -9 13 -12 11 -12 -6z"/>
<path d="M2620 3570 c0 -5 -8 -7 -17 -4 -14 5 -15 4 -4 -4 15 -11 41 -5 41 9
0 5 -4 9 -10 9 -5 0 -10 -4 -10 -10z"/>
<path d="M1710 2736 c0 -9 8 -14 20 -13 11 1 20 2 20 4 0 1 -9 7 -20 13 -16 8
-20 8 -20 -4z"/>
<path d="M805 2650 c3 -5 8 -10 11 -10 2 0 4 5 4 10 0 6 -5 10 -11 10 -5 0 -7
-4 -4 -10z"/>
<path d="M1350 2520 c-13 -8 -12 -10 3 -10 9 0 17 5 17 10 0 12 -1 12 -20 0z"/>
<path d="M897 2396 c-4 -10 -1 -13 8 -9 8 3 12 9 9 14 -7 12 -11 11 -17 -5z"/>
<path d="M1313 1318 c-2 -19 2 -28 10 -25 15 5 17 54 2 54 -5 0 -11 -13 -12
-29z"/>
<path d="M1575 859 c-4 -6 -5 -12 -2 -15 2 -3 7 2 10 11 7 17 1 20 -8 4z"/>
</g>
</svg>
